<?xml version="1.0" encoding="UTF-8" standalone="no"?>
<svg
   xmlns:dc="http://purl.org/dc/elements/1.1/"
   xmlns:cc="http://creativecommons.org/ns#"
   xmlns:rdf="http://www.w3.org/1999/02/22-rdf-syntax-ns#"
   xmlns:svg="http://www.w3.org/2000/svg"
   xmlns="http://www.w3.org/2000/svg"
   xmlns:sodipodi="http://sodipodi.sourceforge.net/DTD/sodipodi-0.dtd"
   xmlns:inkscape="http://www.inkscape.org/namespaces/inkscape"
   width="1062.0208"
   height="637.2124"
   viewBox="0 0 1031.0881 618.65282"
   id="svg2"
   version="1.1"
   inkscape:version="0.48.3.1 r9886"
   sodipodi:docname="Flag of Cyprus (2006).svg">
  <metadata
     id="metadata61">
    <rdf:RDF>
      <cc:Work
         rdf:about="">
        <dc:format>image/svg+xml</dc:format>
        <dc:type
           rdf:resource="http://purl.org/dc/dcmitype/StillImage" />
      </cc:Work>
    </rdf:RDF>
  </metadata>
  <defs
     id="defs59" />
  <sodipodi:namedview
     pagecolor="#ffffff"
     bordercolor="#666666"
     borderopacity="1"
     objecttolerance="10"
     gridtolerance="10"
     guidetolerance="10"
     inkscape:pageopacity="0"
     inkscape:pageshadow="2"
     inkscape:window-width="1600"
     inkscape:window-height="848"
     id="namedview57"
     showgrid="false"
     fit-margin-top="0"
     fit-margin-left="0"
     fit-margin-right="0"
     fit-margin-bottom="0"
     inkscape:zoom="0.37475728"
     inkscape:cx="531.01036"
     inkscape:cy="318.6062"
     inkscape:window-x="-8"
     inkscape:window-y="-8"
     inkscape:window-maximized="1"
     inkscape:current-layer="svg2" />
  <rect
     width="1031.0881"
     height="618.65283"
     id="rect4"
     x="0"
     y="0"
     style="fill:#ffffff" />
  <path
     id="Cyprus"
     d="m 440.951,191.3586 c 0,7.91876 0.98985,8.9086 1.48477,10.39337 0.49492,1.48477 1.11358,28.70446 -2.96953,36.12933 -4.08311,7.42486 -12.1256,11.63067 -15.34259,12.37305 -3.217,0.74239 -13.36291,-6.43399 -22.76746,-9.40352 -9.40352,-2.96953 -8.9086,-2.47461 -12.86695,-2.47461 -3.95835,0 -12.86798,3.33969 -15.34259,5.44414 -1.6085,-0.24746 -1.97969,-0.98984 -2.96953,0 -0.98882,0.98985 -4.94923,4.94923 -5.93907,7.42384 -0.98984,2.47461 -3.46342,11.87916 -6.43399,12.86798 -2.96953,0.98984 -11.01202,9.0313 -16.33243,9.40455 -5.31939,0.37119 -3.83565,-0.24746 -7.42384,-0.49492 -3.58715,-0.24746 -3.95938,-3.95938 -7.42383,-5.93907 -3.46343,-1.97969 -4.4543,-3.46445 -4.4543,-3.46445 0,0 -0.98985,-3.95938 -2.47461,-3.95938 -1.48374,0 -2.96851,6.92994 -2.96851,8.90963 0,1.97969 3.95835,9.40352 5.93907,10.88726 1.97969,1.48477 1.97969,10.3944 0.98984,12.86798 -0.98984,2.47461 1.97969,4.95025 2.47358,7.42383 0.49493,2.47461 -2.9685,4.45327 -1.48373,4.94922 1.48373,0.4939 3.46446,3.46343 3.46446,6.43399 0,2.96954 7.42383,3.95938 8.9086,6.92892 1.48476,2.96953 1.97969,7.91875 2.47461,10.88932 0.49492,2.96953 2.22715,1.60849 2.47358,8.9086 2.35088,1.11357 5.93907,3.46342 8.9086,4.94922 2.96953,1.48477 2.47564,4.94922 6.43399,6.43399 3.95938,1.48374 3.95938,0 5.93907,0.49389 1.97968,0.49492 -0.98985,0.99088 2.47461,1.97969 3.46548,0.98985 4.94922,-0.49389 7.91978,0.98985 2.96954,1.48476 4.45431,4.95025 6.43399,5.94009 1.97969,0.98985 10.39337,3.46343 10.88829,3.95938 0.49493,0.49389 5.93907,2.47461 6.92892,2.47461 0.98984,0 3.95937,-1.98072 3.95937,-1.98072 0,0 3.46446,0.98985 6.43399,0 2.96954,-0.98881 4.94923,-3.95937 6.92892,-3.95937 1.97969,0 2.47461,0.98984 4.4543,0.98984 1.97969,0 4.94819,-0.98984 4.94819,-0.98984 0,0 4.4543,-0.98985 7.91875,0.98984 3.46446,1.98072 11.38322,11.38424 11.38322,15.34362 0,3.95835 -0.49389,5.93907 -0.49389,5.93907 0,0 3.95834,-0.49595 5.44311,0.49389 1.48477,0.99088 1.36104,-0.86508 12.37306,0.99088 -0.74239,-2.72311 -11.38322,-10.39337 -1.48477,-21.28269 9.89845,-10.88932 10.5171,-6.43399 12.86798,-8.41265 2.35088,-1.98072 11.38321,-7.79709 26.7258,-2.47564 14.84767,-2.47358 3.95938,-4.45327 12.37306,-4.9482 1.48477,-0.61968 4.3316,0.1227 7.42487,0.98985 0.98984,-1.85699 3.09326,-3.58819 6.43398,-2.97057 0.61866,-1.73222 4.70074,-4.0831 8.90757,-4.45326 0.61969,-3.34176 11.26052,-7.54654 17.32332,-7.91979 2.47358,-2.22715 5.32041,-12.1256 18.80704,-7.42384 0.49389,-3.21596 2.72207,-8.41368 6.43399,-9.40352 0.74239,-6.68042 -1.73429,-20.16911 4.94922,-24.74611 6.68042,-6.0628 12.99171,-4.7028 24.2512,-4.45327 7.67129,1.60849 11.38321,7.4228 13.85679,7.91875 2.47461,0.49493 3.46445,0.49493 6.43399,-1.48373 2.96953,-1.98072 -0.49389,-5.9401 1.97969,-5.9401 2.47461,0 1.48373,0.49492 5.44414,0 3.95938,-0.49389 3.46446,-1.85596 5.93907,-2.47358 3.96041,1.98072 8.41368,0.49389 10.39337,1.97969 1.98072,1.48373 2.22715,1.36 6.43399,1.97969 1.48373,2.47358 5.44311,2.47358 5.44311,2.47358 0,0 -2.9685,-0.98985 -1.97866,-2.47358 0.98985,-1.48477 0,-5.9401 -1.98072,-7.91979 -1.97865,-1.97969 -2.9685,-2.47461 -4.45327,-4.45327 -1.48373,-1.97969 0.4939,-1.98072 -1.98072,-4.4543 -2.47358,-2.47461 -7.91772,-4.94922 -9.40249,-7.91876 -1.48373,-2.96953 -0.98984,-4.94922 -3.46445,-7.42383 -2.47358,-2.47461 -12.37306,-10.88829 -12.86695,-19.79689 -0.49389,-8.9086 0.49389,-17.44498 6.43296,-20.29182 -0.24747,-5.19668 0.99087,-5.93906 6.43399,-8.9086 5.44311,-2.96953 5.94113,-0.98984 9.40352,-0.98984 3.46342,0 5.44518,0.49492 8.9086,-1.97866 3.46446,-2.47461 0.49492,-7.91876 9.40352,-15.83751 8.90964,-7.91876 12.37306,-11.87814 15.34363,-12.37306 2.96953,-0.49492 13.73306,-8.04249 18.31212,-7.42383 3.21699,-3.83462 6.43399,-8.41368 10.39337,-11.38322 3.95938,-2.96953 8.41471,-2.96953 10.39337,-5.44414 1.97968,-2.47461 1.48373,-6.92994 7.42383,-10.88932 5.93907,-3.95835 10.88932,-6.43296 13.3629,-8.41368 2.47358,-1.97969 7.91876,-0.49492 9.89845,-2.47461 1.97969,-1.97969 1.97969,-9.40353 3.95834,-10.88829 1.98072,-1.48477 -6.43295,3.46445 -10.88726,5.44414 -4.4543,1.97969 -10.88829,5.44415 -16.33243,4.94923 -5.44415,-0.49493 -2.47564,2.9685 -5.44415,3.95937 -2.96953,0.98985 -7.91875,0.49493 -9.89947,2.47461 -1.97969,1.97969 -5.44312,6.92892 -8.41265,8.90861 -2.97056,1.97865 -4.4543,1.48476 -7.42383,2.96953 -2.97057,1.48477 -5.44415,2.96953 -7.91876,3.95938 -2.47461,0.98984 -9.89948,0.49492 -9.89948,0.49492 0,0 -6.43399,8.41368 -9.40352,11.38321 -2.96953,2.96954 -6.43399,2.47461 -9.40352,3.95938 -2.96954,1.48374 -28.21057,17.8172 -45.53182,20.29181 -17.32331,2.47358 -9.40456,-1.48476 -14.84767,0 -5.44312,1.48477 -13.36393,11.87711 -19.79689,12.37306 -6.43399,0.49492 -8.41368,0 -9.89845,0 -1.48476,0 -9.40352,4.94922 -14.35274,3.95938 -7.30011,2.22715 -12.74322,1.73223 -14.84767,1.48374 -2.10342,-0.24643 -5.93907,2.47461 -11.38321,0 -4.20684,-1.36001 -4.20684,1.60849 -12.37203,-0.98882 -8.16725,-2.59834 -13.85886,0.98985 -17.81823,-0.98984 -3.95938,-1.97969 -3.46446,-3.46446 -6.43399,-3.46446 -2.96954,0 -2.96954,1.97969 -6.43399,1.97969 -3.46446,0 -3.95938,-1.97969 -6.92892,-1.97969 -2.96953,0 -6.43398,1.97969 -10.88829,1.48477 -4.4543,-0.49492 -5.93906,-2.47461 -8.9086,-2.47461 -2.97056,-0.003 -19.303,-6.93201 -19.303,-6.93201 z"
     inkscape:connector-curvature="0"
     style="fill:#ed8000" />
  <g
     id="g7"
     transform="scale(1.0310881,1.0310881)"
     style="fill:#006651">
    <path
       d="m 476.765,478.801 c 8.334,-6 15.666,-8 27,-10 11.334,-2 23.334,-5.332 29.666,-7 6.332,-1.668 -21.332,8 -28.332,10 -7,2 -28.334,7 -28.334,7 z"
       id="path9"
       inkscape:connector-curvature="0" />
    <path
       d="m 522.432,461.133 c -2.332,-14.332 3.332,-29.332 16.332,-35.332 3,10.332 -6.332,28 -16.332,35.332 z"
       id="path11"
       inkscape:connector-curvature="0" />
    <path
       d="m 544.383,453.674 c -6.951,-11.873 4.814,-27.188 13.432,-34.697 3.951,7.156 -3.049,28.49 -13.432,34.697 z"
       id="path13"
       inkscape:connector-curvature="0" />
    <path
       d="m 564.766,444.467 c -7.432,-10.182 1.332,-28 10.666,-35 3.666,10 0,28 -10.666,35 z"
       id="path15"
       inkscape:connector-curvature="0" />
    <path
       d="m 585.154,431.734 c -6.723,-9.602 -2.055,-24.602 7.611,-34.268 7.001,8.001 1.001,25.335 -7.611,34.268 z"
       id="path17"
       inkscape:connector-curvature="0" />
    <path
       d="m 601.432,418.801 c -5.666,-9 1.334,-30.668 10.334,-36.668 4,8 1,30.668 -10.334,36.668 z"
       id="path19"
       inkscape:connector-curvature="0" />
    <path
       d="m 614.432,415.467 c -1.666,-13 21.002,-27.334 30.334,-27 -1,10.666 -10.668,22.334 -30.334,27 z"
       id="path21"
       inkscape:connector-curvature="0" />
    <path
       d="m 601.766,430.133 c 10.666,-11 31.332,-11 38.666,-8.666 -2,6.334 -26.332,20.332 -38.666,8.666 z"
       id="path23"
       inkscape:connector-curvature="0" />
    <path
       d="m 587.098,441.133 c 15,-4 24.668,-7.334 33.668,2 -6.334,8 -30.668,5.666 -33.668,-2 z"
       id="path25"
       inkscape:connector-curvature="0" />
    <path
       d="m 565.766,450.801 c 14.332,-7.668 31.666,3.666 34.332,10.332 -16,6.668 -34.664,-8.664 -34.332,-10.332 z"
       id="path27"
       inkscape:connector-curvature="0" />
    <path
       d="m 546.098,461.801 c 13,-5 28,1.668 34,9 -7,3.332 -25.334,7 -34,-9 z"
       id="path29"
       inkscape:connector-curvature="0" />
    <path
       d="m 528.1,467.467 c 15,-1.666 29.393,9.686 32.529,16.176 -19.197,1.824 -26.529,-3.842 -32.529,-16.176 z"
       id="path31"
       inkscape:connector-curvature="0" />
    <path
       d="m 523.268,478.801 c -8.334,-6 -15.666,-8 -27,-10 -11.334,-2 -23.334,-5.332 -29.667,-7 -6.333,-1.668 21.333,8 28.333,10 7,2 28.334,7 28.334,7 z"
       id="path33"
       inkscape:connector-curvature="0" />
    <path
       d="m 477.6,461.133 c 2.333,-14.332 -3.332,-29.332 -16.333,-35.332 -3,10.332 6.333,28 16.333,35.332 z"
       id="path35"
       inkscape:connector-curvature="0" />
    <path
       d="m 455.649,453.674 c 6.951,-11.873 -4.814,-27.188 -13.432,-34.697 -3.951,7.156 3.049,28.49 13.432,34.697 z"
       id="path37"
       inkscape:connector-curvature="0" />
    <path
       d="m 435.266,444.467 c 7.432,-10.182 -1.332,-28 -10.666,-35 -3.666,10 0,28 10.666,35 z"
       id="path39"
       inkscape:connector-curvature="0" />
    <path
       d="m 414.877,431.734 c 6.723,-9.602 2.055,-24.602 -7.611,-34.268 -7,8.001 -1,25.335 7.611,34.268 z"
       id="path41"
       inkscape:connector-curvature="0" />
    <path
       d="m 398.6,418.801 c 5.666,-9 -1.334,-30.668 -10.334,-36.668 -4,8 -1,30.668 10.334,36.668 z"
       id="path43"
       inkscape:connector-curvature="0" />
    <path
       d="m 385.6,415.467 c 1.666,-13 -21.002,-27.334 -30.334,-27 1,10.666 10.668,22.334 30.334,27 z"
       id="path45"
       inkscape:connector-curvature="0" />
    <path
       d="m 398.266,430.133 c -10.666,-11 -31.332,-11 -38.666,-8.666 2,6.334 26.332,20.332 38.666,8.666 z"
       id="path47"
       inkscape:connector-curvature="0" />
    <path
       d="m 412.934,441.133 c -15,-4 -24.668,-7.334 -33.668,2 6.334,8 30.668,5.666 33.668,-2 z"
       id="path49"
       inkscape:connector-curvature="0" />
    <path
       d="m 434.266,450.801 c -14.332,-7.668 -31.666,3.666 -34.332,10.332 16,6.668 34.664,-8.664 34.332,-10.332 z"
       id="path51"
       inkscape:connector-curvature="0" />
    <path
       d="m 453.934,461.801 c -13,-5 -28,1.668 -34,9 7,3.332 25.334,7 34,-9 z"
       id="path53"
       inkscape:connector-curvature="0" />
    <path
       d="m 471.933,467.467 c -15,-1.666 -29.394,9.686 -32.53,16.176 19.197,1.824 26.53,-3.842 32.53,-16.176 z"
       id="path55"
       inkscape:connector-curvature="0" />
  </g>
</svg>
