<?xml version="1.0" encoding="UTF-8" standalone="no"?>
<!-- Created with Inkscape (http://www.inkscape.org/) -->

<svg
   xmlns:dc="http://purl.org/dc/elements/1.1/"
   xmlns:cc="http://creativecommons.org/ns#"
   xmlns:rdf="http://www.w3.org/1999/02/22-rdf-syntax-ns#"
   xmlns:svg="http://www.w3.org/2000/svg"
   xmlns="http://www.w3.org/2000/svg"
   version="1.1"
   width="1200"
   height="800"
   id="svg2">
  <title
     id="title3007">Flag of Turkey 3</title>
  <metadata
     id="metadata16">
    <rdf:RDF>
      <cc:Work
         rdf:about="">
        <dc:format>image/svg+xml</dc:format>
        <dc:type
           rdf:resource="http://purl.org/dc/dcmitype/StillImage" />
        <dc:title>Flag of Turkey 3</dc:title>
      </cc:Work>
    </rdf:RDF>
  </metadata>
  <defs
     id="defs14" />
  <g
     id="g3002">
    <rect
       width="1200"
       height="800"
       x="0"
       y="0"
       id="rect4"
       style="fill:#e30a17" />
    <polygon
       points="652.431,304.894 652.431,495.106 764.235,341.221 583.334,400 764.235,458.779 "
       transform="translate(-1.4187668,-0.23679104)"
       id="polygon10-1"
       style="fill:#ffffff" />
    <path
       d="m 592.51838,506.53619 c -9.17391,10.4748 -19.83095,19.4087 -29.8514,25.7845 -18.20894,13.6453 -36.39664,19.4031 -58.88941,24.4017 -39.42953,9.7974 -85.62168,0.444 -114.76928,-21.0668 -6.83114,-3.9341 -13.08707,-9.0186 -19.27734,-14.2343 -8.09843,-7.0637 -15.65176,-14.7633 -22.44955,-23.3443 -6.72031,-9.1038 -12.44507,-18.6343 -17.65056,-28.3873 -4.49803,-8.8704 -7.72056,-18.219 -10.49274,-27.7366 -3.46491,-11.108 -4.36643,-22.9151 -5.53105,-34.6504 -0.33528,-7.2102 0.0455,-14.8066 0.56938,-22.4496 0.99075,-10.0124 3.19967,-20.4173 6.18176,-31.0715 2.17873,-6.7479 4.97689,-14.2971 8.45926,-22.1242 2.85512,-6.3444 6.50027,-12.6888 10.65541,-19.0333 3.73819,-5.7468 8.38631,-11.7969 13.42093,-17.9759 4.8414,-5.3771 9.72839,-10.7598 16.26779,-16.34913 5.73319,-5.05349 12.46048,-9.85845 19.92805,-14.47834 33.4451,-20.18116 67.53867,-26.82737 104.92726,-22.85625 32.31151,5.09008 52.48297,12.70506 76.62131,31.80354 8.66332,6.46576 14.97591,13.08338 21.88018,19.76538 -7.13227,-12.83087 -16.68595,-23.81016 -27.57391,-34.32506 l -15.29173,-13.66494 c -41.82902,-32.78852 -84.85515,-45.55734 -132.66385,-44.73644 -13.50428,0.42438 -26.53502,2.49817 -39.61207,5.28704 -15.71593,2.89474 -30.11157,9.58394 -44.6551,16.43047 -16.87751,7.38122 -30.61161,18.30055 -43.43502,29.77006 -9.24517,8.68411 -17.48441,17.94303 -25.21508,27.49257 -5.78229,8.0091 -11.60403,16.3733 -17.81323,28.2246 -4.66616,8.6653 -8.50858,17.8798 -11.87549,27.4113 -2.92582,9.501 -5.42692,19.1845 -7.48319,29.1193 -1.97449,11.231 -2.93176,22.3348 -3.17222,33.349 -0.2912,11.6857 1.02937,23.3714 2.44017,35.0571 1.7065,9.2455 3.72082,18.4911 6.50712,27.7366 16.96101,47.9409 36.02058,73.2633 74.99453,103.0565 19.09144,12.244 36.00171,21.959 58.48273,28.7126 55.50923,12.4658 108.39297,6.4109 155.76412,-17.4065 35.29422,-20.2965 50.89749,-37.8859 70.60222,-67.5114 z"
       id="path2995"
       style="fill:#ffffff;stroke:none" />
  </g>
</svg>
